<svg width="46" height="47" viewBox="0 0 46 47" fill="none" xmlns="http://www.w3.org/2000/svg">
<rect y="0.5" width="46" height="46" rx="23" fill="#5AE185"/>
<path d="M29.8334 25.0568L29.8425 25.0468M19.881 25.0568L19.8901 25.0468M16.7144 28.6668V21.4287C16.7144 20.9487 16.905 20.4885 17.2444 20.1491C17.5837 19.8098 18.044 19.6191 18.5239 19.6191H31.1905C31.6705 19.6191 32.1307 19.8098 32.4701 20.1491C32.8094 20.4885 33.0001 20.9487 33.0001 21.4287V28.6668C33.0001 29.1467 32.8094 29.6069 32.4701 29.9463C32.1307 30.2856 31.6705 30.4763 31.1905 30.4763H18.5239C18.044 30.4763 17.5837 30.2856 17.2444 29.9463C16.905 29.6069 16.7144 29.1467 16.7144 28.6668Z" stroke="black" stroke-width="1.08571" stroke-linecap="round" stroke-linejoin="round"/>
<path d="M16.7143 26.8571H15.8095C15.3296 26.8571 14.8693 26.6665 14.53 26.3271C14.1906 25.9878 14 25.5275 14 25.0476V17.8095C14 17.3296 14.1906 16.8693 14.53 16.53C14.8693 16.1906 15.3296 16 15.8095 16H28.4762C28.9561 16 29.4164 16.1906 29.7557 16.53C30.0951 16.8693 30.2857 17.3296 30.2857 17.8095V19.619M24.8571 26.8571C24.3772 26.8571 23.917 26.6665 23.5776 26.3271C23.2383 25.9878 23.0476 25.5275 23.0476 25.0476C23.0476 24.5677 23.2383 24.1074 23.5776 23.7681C23.917 23.4287 24.3772 23.2381 24.8571 23.2381C25.3371 23.2381 25.7973 23.4287 26.1367 23.7681C26.476 24.1074 26.6667 24.5677 26.6667 25.0476C26.6667 25.5275 26.476 25.9878 26.1367 26.3271C25.7973 26.6665 25.3371 26.8571 24.8571 26.8571Z" stroke="black" stroke-width="1.08571" stroke-linecap="round" stroke-linejoin="round"/>
</svg>
