<svg width="46" height="46" viewBox="0 0 46 46" fill="none" xmlns="http://www.w3.org/2000/svg">
<rect width="46" height="46" rx="23" fill="#5AE185"/>
<path fill-rule="evenodd" clip-rule="evenodd" d="M29 17H17C16.337 17 15.7011 17.2634 15.2322 17.7322C14.7634 18.2011 14.5 18.837 14.5 19.5V26.5C14.5 27.163 14.7634 27.7989 15.2322 28.2678C15.7011 28.7366 16.337 29 17 29H29C29.663 29 30.2989 28.7366 30.7678 28.2678C31.2366 27.7989 31.5 27.163 31.5 26.5V19.5C31.5 18.837 31.2366 18.2011 30.7678 17.7322C30.2989 17.2634 29.663 17 29 17ZM15.5 19.5C15.5 19.1022 15.658 18.7206 15.9393 18.4393C16.2206 18.158 16.6022 18 17 18H29C29.3978 18 29.7794 18.158 30.0607 18.4393C30.342 18.7206 30.5 19.1022 30.5 19.5V26.5C30.5 26.8978 30.342 27.2794 30.0607 27.5607C29.7794 27.842 29.3978 28 29 28H17C16.6022 28 16.2206 27.842 15.9393 27.5607C15.658 27.2794 15.5 26.8978 15.5 26.5V19.5Z" fill="black"/>
<path fill-rule="evenodd" clip-rule="evenodd" d="M15.5 19.5H30.5C30.6326 19.5 30.7598 19.5527 30.8536 19.6464C30.9473 19.7402 31 19.8674 31 20V21C31 21.1326 30.9473 21.2598 30.8536 21.3536C30.7598 21.4473 30.6326 21.5 30.5 21.5H15.5C15.3674 21.5 15.2402 21.4473 15.1464 21.3536C15.0527 21.2598 15 21.1326 15 21V20C15 19.8674 15.0527 19.7402 15.1464 19.6464C15.2402 19.5527 15.3674 19.5 15.5 19.5ZM19 22.5H18C17.7348 22.5 17.4804 22.6054 17.2929 22.7929C17.1054 22.9804 17 23.2348 17 23.5V24.5C17 24.7652 17.1054 25.0196 17.2929 25.2071C17.4804 25.3946 17.7348 25.5 18 25.5H19C19.2652 25.5 19.5196 25.3946 19.7071 25.2071C19.8946 25.0196 20 24.7652 20 24.5V23.5C20 23.2348 19.8946 22.9804 19.7071 22.7929C19.5196 22.6054 19.2652 22.5 19 22.5ZM18 24.5V23.5H19V24.5H18Z" fill="black"/>
</svg>
