<svg width="46" height="47" viewBox="0 0 46 47" fill="none" xmlns="http://www.w3.org/2000/svg">
<rect y="0.5" width="46" height="46" rx="23" fill="#F3F3F3"/>
<path d="M27.73 13.5649H18.27C17.6427 13.6026 17.0555 13.8863 16.6361 14.3544C16.2167 14.8225 15.9989 15.4372 16.03 16.0649V30.9349C15.9989 31.5627 16.2167 32.1774 16.6361 32.6455C17.0555 33.1136 17.6427 33.3973 18.27 33.4349H27.73C28.3574 33.3973 28.9446 33.1136 29.364 32.6455C29.7834 32.1774 30.0012 31.5627 29.97 30.9349V16.0649C30.0012 15.4372 29.7834 14.8225 29.364 14.3544C28.9446 13.8863 28.3574 13.6026 27.73 13.5649ZM28.97 30.9349C29.0008 31.2975 28.8882 31.6577 28.6564 31.9382C28.4245 32.2186 28.0919 32.397 27.73 32.4349H18.27C17.9081 32.397 17.5756 32.2186 17.3437 31.9382C17.1119 31.6577 16.9993 31.2975 17.03 30.9349V16.0649C16.9993 15.7024 17.1119 15.3422 17.3437 15.0617C17.5756 14.7813 17.9081 14.6029 18.27 14.5649H19.8V15.0749C19.8 15.3402 19.9054 15.5945 20.0929 15.782C20.2805 15.9696 20.5348 16.0749 20.8 16.0749H25.2C25.4653 16.0749 25.7196 15.9696 25.9071 15.782C26.0947 15.5945 26.2 15.3402 26.2 15.0749V14.5649H27.73C28.0919 14.6029 28.4245 14.7813 28.6564 15.0617C28.8882 15.3422 29.0008 15.7024 28.97 16.0649V30.9349Z" fill="#979797"/>
<path d="M21 30.4341H25C25.1326 30.4341 25.2598 30.3814 25.3536 30.2876C25.4473 30.1939 25.5 30.0667 25.5 29.9341C25.5 29.8015 25.4473 29.6743 25.3536 29.5805C25.2598 29.4868 25.1326 29.4341 25 29.4341H21C20.8674 29.4341 20.7402 29.4868 20.6464 29.5805C20.5527 29.6743 20.5 29.8015 20.5 29.9341C20.5 30.0667 20.5527 30.1939 20.6464 30.2876C20.7402 30.3814 20.8674 30.4341 21 30.4341Z" fill="#979797"/>
</svg>
